<svg id="Layer_1" data-name="Layer 1" xmlns="http://www.w3.org/2000/svg" viewBox="0 0 1000 100"><title>logo_full</title><path d="M12.83,37.77c-.17-.25-.25-.35-.38-.56s-.22-.34-.36-.59L1.65,18.55A12.37,12.37,0,1,1,23.07,6.18L33.5,24.25A12.4,12.4,0,0,1,29,41.14a14.39,14.39,0,0,1-2.61,1.13,13.46,13.46,0,0,1-1.77.44,7.34,7.34,0,0,1-.22-2.29,5.49,5.49,0,0,1,.26-1.5,6.49,6.49,0,0,1,1.92-2.57c1.15-1.1,1.34-1,1.94-1.65a6.21,6.21,0,0,0,1.31-2.9A8.49,8.49,0,0,0,29,26.25q-5-8.59-9.94-17.21a7.51,7.51,0,0,0-13,7.51l9.14,15.82a6.16,6.16,0,0,0-1.45,1.84,6.5,6.5,0,0,0-.59,4.09C13.11,38.18,13,38,12.83,37.77Z" style="fill:#fff"/><path d="M54.66,76.77l-2.78,4.82a7.51,7.51,0,0,0,13,7.51l9.94-17.22a8.53,8.53,0,0,0,.78-5.55,6.18,6.18,0,0,0-1.31-2.89c-.6-.7-.79-.55-1.94-1.65a6.87,6.87,0,0,1-1.93-2.57,5.55,5.55,0,0,1-.25-1.51,7.08,7.08,0,0,1,.22-2.29A14.36,14.36,0,0,1,74.78,57,12.4,12.4,0,0,1,79.3,73.88L68.87,92A12.37,12.37,0,0,1,47.45,79.59l4.48-7.76Z" style="fill:#fff"/><path d="M38.2,32.73a5.89,5.89,0,0,1,.38.55c.12.19.24.38.35.57L49.36,51.91a12.41,12.41,0,0,1-4.52,16.9,14.65,14.65,0,0,1-4.38,1.58,7.08,7.08,0,0,1-.22-2.29,5.55,5.55,0,0,1,.25-1.51A6.83,6.83,0,0,1,42.41,64c1.16-1.1,1.35-.95,1.94-1.65a6.27,6.27,0,0,0,1.32-2.89,9.39,9.39,0,0,0-.78-5.55C42.46,48.08,36.45,39.18,36,38.45A8.6,8.6,0,0,0,38.2,32.73Z" style="fill:#fff"/><path d="M26.86,27.74a12.14,12.14,0,0,0-2.22.45A14.7,14.7,0,0,0,22,29.32a12.4,12.4,0,0,0-4.52,16.89L27.94,64.29c.15.26.27.45.36.59l.39.56L29,66a6.51,6.51,0,0,1,.59-4.09,6.24,6.24,0,0,1,1.44-1.83L21.94,44.22A7.55,7.55,0,0,1,24.69,34a3.52,3.52,0,0,0,1-.47,4.07,4.07,0,0,0,1.23-2.72A8.34,8.34,0,0,0,26.86,27.74Z" style="fill:#fff"/><path d="M52.15,66s6.6,10,9,15.5a9.33,9.33,0,0,1,.78,5.56c0,.16-.09.39-.16.65L66.31,81a12,12,0,0,0-.74-1.48L55.14,61.46l-.8-1.22a8.93,8.93,0,0,1-.57,3.07A9.39,9.39,0,0,1,52.15,66Z" style="fill:#fff"/><path d="M43.35,80.83c-.25.21-2.88-4.56-5.19-9-2.44-4.67.35-9.19,2.75-10.26l.22-.12A4.16,4.16,0,0,0,43,58.78,6.68,6.68,0,0,0,42.87,57c-.08-.67-.18-1.22-.26-1.61a11.61,11.61,0,0,0-1.75.38,14,14,0,0,0-2.61,1.13,12.4,12.4,0,0,0-4.53,16.89C41.1,87.44,43.78,91.24,43.78,91.24a15.29,15.29,0,0,1-1.09-7.34A21.31,21.31,0,0,1,43.35,80.83Z" style="fill:#fff"/><path d="M99.28,37.77l.39-.56c.09-.13.21-.34.36-.59l10.44-18.07A12.37,12.37,0,0,0,89,6.17L78.61,24.25a12.4,12.4,0,0,0,4.53,16.89,14.7,14.7,0,0,0,2.61,1.13,13.46,13.46,0,0,0,1.77.44,7.34,7.34,0,0,0,.22-2.29,5.14,5.14,0,0,0-.26-1.5,6.49,6.49,0,0,0-1.92-2.57c-1.15-1.1-1.34-1-1.94-1.65a6.21,6.21,0,0,1-1.31-2.9,8.48,8.48,0,0,1,.78-5.55L93,9a7.51,7.51,0,0,1,13,7.51L96.9,32.37a6.29,6.29,0,0,1,1.44,1.84,6.5,6.5,0,0,1,.59,4.09Z" style="fill:#fff"/><path d="M73.92,32.73a5.89,5.89,0,0,0-.38.55c-.13.19-.24.38-.35.57L62.75,51.92a12.4,12.4,0,0,0,4.53,16.89,14.65,14.65,0,0,0,4.38,1.58,7.08,7.08,0,0,0,.22-2.29,5.55,5.55,0,0,0-.25-1.51A6.83,6.83,0,0,0,69.71,64c-1.16-1.1-1.35-.95-1.94-1.65a6.27,6.27,0,0,1-1.32-2.89,9.39,9.39,0,0,1,.78-5.55c2.43-5.85,8.44-14.75,8.94-15.48A8.6,8.6,0,0,1,73.92,32.73Z" style="fill:#fff"/><path d="M85.26,27.74a11.87,11.87,0,0,1,2.21.45,14.39,14.39,0,0,1,2.61,1.13,12.39,12.39,0,0,1,4.53,16.89L84.17,64.29c-.14.26-.27.45-.36.59s-.22.31-.38.56-.28.41-.35.53a6.58,6.58,0,0,0-.59-4.09A6.15,6.15,0,0,0,81,60.05l9.14-15.83A7.55,7.55,0,0,0,87.43,34a3.52,3.52,0,0,1-1-.47,4.08,4.08,0,0,1-1.24-2.72A8.34,8.34,0,0,1,85.26,27.74Z" style="fill:#fff"/><path d="M102.09,55.73a24.88,24.88,0,0,1,9.26-9.21,27.43,27.43,0,0,1,26.27,0,25.11,25.11,0,0,1,9.21,9.21,26.23,26.23,0,0,1,3.41,13.44,26.32,26.32,0,0,1-3.41,13.38,25,25,0,0,1-9.21,9.26,27.35,27.35,0,0,1-26.27,0,24.79,24.79,0,0,1-9.26-9.26,26.22,26.22,0,0,1-3.42-13.38A26.13,26.13,0,0,1,102.09,55.73Zm7.58,22.65a16.71,16.71,0,0,0,6.07,6.33,17.48,17.48,0,0,0,17.44,0,16.86,16.86,0,0,0,6.07-6.33,18.73,18.73,0,0,0,2.22-9.21,19,19,0,0,0-2.22-9.27,16.36,16.36,0,0,0-6.07-6.33,17.82,17.82,0,0,0-17.44,0,16.22,16.22,0,0,0-6.07,6.33,19,19,0,0,0-2.22,9.27A18.73,18.73,0,0,0,109.67,78.38Z" style="fill:#fff"/><path d="M179.49,44.25v8.13H154.57V44.25Zm-8.12-17.33V94.08H162.7V26.92Z" style="fill:#fff"/><path d="M195.14,91.86a22.52,22.52,0,0,1-8.34-9.15,29.41,29.41,0,0,1-3-13.54,30.1,30.1,0,0,1,1.79-10.62,23.79,23.79,0,0,1,5-8.18,22.7,22.7,0,0,1,7.8-5.31,26,26,0,0,1,10.07-1.89,24.56,24.56,0,0,1,12.62,3.08,20.4,20.4,0,0,1,8.07,8.83A30.68,30.68,0,0,1,232,68.73c0,.51,0,1-.05,1.57s-.06.89-.06,1H189.35V64H225.1l-3.47,5a7.34,7.34,0,0,0,.65-1.68,7.07,7.07,0,0,0,.33-1.89,15.76,15.76,0,0,0-1.79-7.7,13.18,13.18,0,0,0-4.93-5.09,14.3,14.3,0,0,0-7.37-1.84,17.91,17.91,0,0,0-6.66,1.19,13.39,13.39,0,0,0-5,3.47A15.16,15.16,0,0,0,193.68,61a24.75,24.75,0,0,0-1.08,7.59,24.27,24.27,0,0,0,1.84,10,13.62,13.62,0,0,0,5.42,6.29A16.44,16.44,0,0,0,208.52,87a17.84,17.84,0,0,0,9-2.22,18.31,18.31,0,0,0,6.61-6.77l7,4.44a26.13,26.13,0,0,1-9.8,9.48,28.85,28.85,0,0,1-13.92,3.2A22.93,22.93,0,0,1,195.14,91.86Z" style="fill:#fff"/><path d="M252.61,9.58v84.5H244V9.58Z" style="fill:#fff"/><path d="M270.65,19.44a5.94,5.94,0,0,1,8.4,8.4,5.82,5.82,0,0,1-8.4,0,5.82,5.82,0,0,1,0-8.4Zm8.51,24.81V94.08h-8.67V44.25Z" style="fill:#fff"/><path d="M327.8,56.87a8.71,8.71,0,0,0-3.58-4.17,11.31,11.31,0,0,0-5.85-1.41,13.71,13.71,0,0,0-6.66,1.57,11,11,0,0,0-4.44,4.39,13.09,13.09,0,0,0-1.57,6.5V94.08H297V44.25h8.67v7.8a17.37,17.37,0,0,1,23.94-6.5,16,16,0,0,1,5.9,6.72,23.5,23.5,0,0,1,2.11,10.4V94.08H329V63.75A17.5,17.5,0,0,0,327.8,56.87Z" style="fill:#fff"/><path d="M362,9.58v84.5h-8.67V9.58Zm29.25,34.67L369.61,64.83l23.84,29.25H382.61L358.78,64.83l21.67-20.58Z" style="fill:#fff"/></svg>