<svg id="Layer_1" data-name="Layer 1" xmlns="http://www.w3.org/2000/svg" viewBox="0 0 874.98 765.83"><title>LOGO_V</title><path d="M159.38,399c-1.33-1.95-1.93-2.71-3-4.36-.69-1-1.69-2.6-2.81-4.58L72.1,249c-26.54-46-10.64-105.29,35.32-131.83s105.3-10.65,131.84,35.32L320.7,293.5c26.54,46,10.64,105.3-35.33,131.84A114,114,0,0,1,265,434.15a112.5,112.5,0,0,1-13.81,3.46,56.46,56.46,0,0,1-1.74-17.87,42.6,42.6,0,0,1,2-11.74c.65-1.93,3.17-8.8,15-20.08,9-8.58,10.48-7.42,15.14-12.86,7.34-8.56,9.32-18.09,10.26-22.59,4-19.06-2.13-36.48-6.08-43.33Q247,242,208.23,174.78A58.62,58.62,0,0,0,106.7,233.4Q142.37,295.15,178,356.91a48.67,48.67,0,0,0-11.3,14.32,50.91,50.91,0,0,0-4.59,31.92C161.54,402.21,160.6,400.74,159.38,399Z" transform="translate(-59.24 -104.26)" style="fill:#fff"/><path d="M485.82,703.43Q475,722.2,464.15,741a58.62,58.62,0,0,0,101.53,58.61l77.57-134.36c4-6.84,10-24.27,6.08-43.32-.94-4.51-2.92-14-10.26-22.6-4.66-5.43-6.15-4.28-15.14-12.85-11.82-11.28-14.34-18.16-15-20.08a42.66,42.66,0,0,1-2-11.75,56.46,56.46,0,0,1,1.74-17.87A112.56,112.56,0,0,1,642.82,549c46,26.54,61.87,85.87,35.33,131.84l-81.44,141c-26.54,46-85.87,61.87-131.84,35.33S403,771.37,429.55,725.4c0,0,16.69-28.9,34.95-60.54Z" transform="translate(-59.24 -104.26)" style="fill:#fff"/><path d="M357.36,359.7c1,1.33,2,2.75,2.94,4.26s1.9,3,2.73,4.45l81.44,141c26.54,46,10.65,105.3-35.32,131.84A112.72,112.72,0,0,1,375,653.58a56.46,56.46,0,0,1-1.74-17.87,43,43,0,0,1,2-11.75c.66-1.92,3.18-8.8,15-20.08,9-8.57,10.47-7.42,15.13-12.85,7.34-8.57,9.32-18.09,10.26-22.6,3.7-17.74-2-33.57-6.08-43.32C390.64,479.47,343.71,410,339.84,404.34a67.32,67.32,0,0,0,17.52-44.64Z" transform="translate(-59.24 -104.26)" style="fill:#fff"/><path d="M268.84,320.78a95.61,95.61,0,0,0-17.26,3.49,110,110,0,0,0-20.38,8.81c-46,26.54-61.87,85.87-35.33,131.84L277.31,606c1.13,2,2.12,3.54,2.81,4.58,1.1,1.65,1.7,2.42,3,4.36s2.16,3.27,2.75,4.2a50.83,50.83,0,0,1,4.6-31.91,48.53,48.53,0,0,1,11.29-14.32L230.48,449.36a58.89,58.89,0,0,1,21.45-80.07c1-.56,4.29-1.09,7.62-3.69,6.92-5.39,8.43-14.13,9.64-21.17A64.8,64.8,0,0,0,268.84,320.78Z" transform="translate(-59.24 -104.26)" style="fill:#fff"/><path d="M466.26,619.57s51.51,78.28,69.88,121c2.83,6.59,10.19,23.6,6.08,43.33-.28,1.32-.64,3.08-1.21,5.12l35.76-52.42A96.13,96.13,0,0,0,571,725L489.6,583.91l-6.28-9.53a70,70,0,0,1-4.43,24A72.47,72.47,0,0,1,466.26,619.57Z" transform="translate(-59.24 -104.26)" style="fill:#fff"/><path d="M397.58,735.07c-2,1.65-22.49-35.58-40.54-70.21-19-36.5,2.72-71.77,21.46-80.07.13-.06.81-.4,1.72-.95.63-.38,12.11-7.56,14.25-20.86.48-3,.09-6.53-.68-13.62-.58-5.23-1.36-9.56-2-12.62a96.23,96.23,0,0,0-13.65,3,110,110,0,0,0-20.38,8.8c-46,26.55-61.86,85.87-35.32,131.84C380,786.66,400.9,816.33,400.9,816.33s-11.61-24.48-8.47-57.27C393.34,749.48,397.58,735.07,397.58,735.07Z" transform="translate(-59.24 -104.26)" style="fill:#fff"/><path d="M834.08,399c1.33-1.95,1.94-2.71,3-4.36.69-1,1.69-2.6,2.82-4.58L921.36,249C947.9,203,932,143.66,886,117.12s-105.3-10.65-131.84,35.32L672.76,293.5c-26.54,46-10.64,105.3,35.33,131.84a114.22,114.22,0,0,0,20.38,8.81,112.06,112.06,0,0,0,13.81,3.46A57.06,57.06,0,0,0,744,419.74,43.06,43.06,0,0,0,742,408c-.65-1.93-3.17-8.8-15-20.08-9-8.58-10.48-7.42-15.13-12.86-7.34-8.56-9.33-18.09-10.27-22.59-4-19.06,2.13-36.48,6.08-43.33l77.58-134.36A58.61,58.61,0,0,1,886.76,233.4L815.45,356.91a48.82,48.82,0,0,1,11.29,14.32,50.93,50.93,0,0,1,4.6,31.92C831.92,402.21,832.86,400.74,834.08,399Z" transform="translate(-59.24 -104.26)" style="fill:#fff"/><path d="M636.1,359.7q-1.46,2-2.94,4.26c-1,1.52-1.9,3-2.73,4.45L549,509.46c-26.54,46-10.64,105.3,35.33,131.84a112.56,112.56,0,0,0,34.18,12.28,56.46,56.46,0,0,0,1.74-17.87,42.66,42.66,0,0,0-2-11.75c-.65-1.92-3.17-8.8-15-20.08-9-8.57-10.48-7.42-15.14-12.85-7.34-8.57-9.32-18.09-10.26-22.6-3.7-17.74,2-33.57,6.08-43.32,18.93-45.64,65.86-115.08,69.73-120.77A67.46,67.46,0,0,1,636.1,359.7Z" transform="translate(-59.24 -104.26)" style="fill:#fff"/><path d="M724.63,320.78a95.36,95.36,0,0,1,17.25,3.49,110.2,110.2,0,0,1,20.39,8.81c46,26.54,61.86,85.87,35.32,131.84L716.15,606c-1.12,2-2.12,3.54-2.81,4.58-1.1,1.65-1.7,2.42-3,4.36s-2.16,3.27-2.75,4.2A50.88,50.88,0,0,0,703,587.2a48.53,48.53,0,0,0-11.3-14.32L763,449.36a58.9,58.9,0,0,0-21.46-80.07c-1-.56-4.29-1.09-7.62-3.69-6.92-5.39-8.42-14.13-9.64-21.17A65.08,65.08,0,0,1,724.63,320.78Z" transform="translate(-59.24 -104.26)" style="fill:#fff"/></svg>